<?xml version="1.0" encoding="utf-8"?>
<!-- Generator: Adobe Illustrator 24.1.0, SVG Export Plug-In . SVG Version: 6.00 Build 0)  -->
<svg version="1.1" id="圖層_1" xmlns="http://www.w3.org/2000/svg" xmlns:xlink="http://www.w3.org/1999/xlink" x="0px" y="0px"
	 viewBox="0 0 100 100" style="enable-background:new 0 0 100 100;" xml:space="preserve">
<g>
	<path d="M50,4.55C24.94,4.55,4.55,24.94,4.55,50S24.94,95.45,50,95.45c25.06,0,45.45-20.39,45.45-45.45
		C95.45,24.94,75.06,4.55,50,4.55z M50,89.45c-21.76,0-39.45-17.7-39.45-39.45S28.24,10.55,50,10.55S89.45,28.25,89.45,50
		C89.45,71.75,71.75,89.45,50,89.45z"/>
	<path d="M50,23.3c-2.56,0-4.64,2.08-4.64,4.64c0,1.24,0.48,2.4,1.36,3.28c0.88,0.88,2.04,1.36,3.28,1.36
		c2.56,0,4.64-2.08,4.64-4.64S52.56,23.3,50,23.3z"/>
	<path d="M50,40.19c-2.16,0-3.92,1.76-3.92,3.92v29.66c0,2.16,1.76,3.91,3.92,3.91c2.16,0,3.91-1.75,3.92-3.91V44.1
		C53.92,41.95,52.16,40.19,50,40.19z"/>
</g>
</svg>
