<?xml version="1.0" encoding="utf-8"?>
<!-- Generator: Adobe Illustrator 24.1.0, SVG Export Plug-In . SVG Version: 6.00 Build 0)  -->
<svg version="1.1" id="圖層_1" xmlns="http://www.w3.org/2000/svg" xmlns:xlink="http://www.w3.org/1999/xlink" x="0px" y="0px"
	 viewBox="0 0 21.3 21.3" style="enable-background:new 0 0 21.3 21.3;" xml:space="preserve">
<style type="text/css">
	.st0{fill:#707070;stroke:#FFFFFF;stroke-width:0.2;}
</style>
<path id="Path_18" class="st0" d="M8.8,19.6c-0.4,0-0.7-0.3-0.8-0.7c0,0,0,0,0,0V12L0.9,2.8C0.6,2.5,0.7,2,1,1.7
	c0.1-0.1,0.3-0.2,0.5-0.2h18.3c0.4,0,0.7,0.3,0.7,0.7c0,0.2-0.1,0.3-0.2,0.5L13.2,12v4.7c0,0.4-0.4,0.7-0.8,0.7
	c-0.4,0-0.7-0.3-0.7-0.7v-5c0-0.2,0.1-0.3,0.2-0.5l6.4-8.2H3l6.4,8.2c0.1,0.1,0.2,0.3,0.2,0.5v7.2C9.5,19.3,9.2,19.7,8.8,19.6
	C8.8,19.7,8.8,19.6,8.8,19.6z"/>
</svg>
