<svg xmlns="http://www.w3.org/2000/svg" width="28.734" height="20.296" viewBox="0 0 28.734 20.296">
  <g id="Group_453" data-name="Group 453" transform="translate(-452 -40.062)">
    <path id="Path_49" data-name="Path 49" d="M12.37,24.6a1.68,1.68,0,0,0-1.67,1.67,1.631,1.631,0,0,0,1.67,1.67,1.68,1.68,0,0,0,1.67-1.67A1.735,1.735,0,0,0,12.37,24.6Z" transform="translate(449.014 32.419)" fill="#7b7b7b"/>
    <path id="Path_50" data-name="Path 50" d="M22.27,24.6a1.67,1.67,0,0,0,0,3.34,1.735,1.735,0,0,0,1.67-1.67A1.68,1.68,0,0,0,22.27,24.6Z" transform="translate(446.987 32.419)" fill="#7b7b7b"/>
    <path id="Path_52" data-name="Path 52" d="M22.472,13.564a.883.883,0,0,0-.875-.875.932.932,0,0,0-.875.716h0l-.954,4.135a.171.171,0,0,1-.159.159H8.714a.171.171,0,0,1-.159-.159l-1.67-7.157h11.77a.875.875,0,1,0,0-1.75H6.408L5.772,5.452A1.727,1.727,0,0,0,4.022,4.1H1.875a.875.875,0,1,0,0,1.75H3.942L6.805,17.858v.08a2.03,2.03,0,0,0,1.909,1.511H19.53a1.9,1.9,0,0,0,1.909-1.511l.954-4.135h0C22.472,13.643,22.472,13.643,22.472,13.564Z" transform="translate(451 36.616)" fill="#7b7b7b"/>
    <path id="icons8-ok" d="M20.212,15.5l-5.189,5.189a.686.686,0,0,1-.971,0l-2.37-2.37a.686.686,0,0,1,.971-.971l1.885,1.885,4.7-4.7a.686.686,0,0,1,.971.971Z" transform="translate(460.22 25.877)" fill="#707070" stroke="#707070" stroke-width="0.2"/>
  </g>
</svg>
