<svg xmlns="http://www.w3.org/2000/svg" width="26.88" height="20.359" viewBox="0 0 26.88 20.359">
  <g id="Group_454" data-name="Group 454" transform="translate(-387 -40)">
    <g id="icon_cart-06" transform="translate(386 36.8)">
      <path id="Path_49" data-name="Path 49" d="M12.37,24.6a1.68,1.68,0,0,0-1.67,1.67,1.631,1.631,0,0,0,1.67,1.67,1.68,1.68,0,0,0,1.67-1.67A1.735,1.735,0,0,0,12.37,24.6Z" transform="translate(-1.986 -4.381)" fill="#7b7b7b"/>
      <path id="Path_50" data-name="Path 50" d="M22.27,24.6a1.67,1.67,0,0,0,0,3.34,1.735,1.735,0,0,0,1.67-1.67A1.68,1.68,0,0,0,22.27,24.6Z" transform="translate(-4.013 -4.381)" fill="#7b7b7b"/>
      <path id="Path_51" data-name="Path 51" d="M32,6.063H30.012V4.075a.875.875,0,0,0-1.75,0V6.063H26.275a.875.875,0,1,0,0,1.75h1.988V9.8a.875.875,0,1,0,1.75,0V7.892H32a.883.883,0,0,0,.875-.875A.955.955,0,0,0,32,6.063Z" transform="translate(-4.996)" fill="#7b7b7b"/>
      <path id="Path_52" data-name="Path 52" d="M22.472,13.564a.883.883,0,0,0-.875-.875.932.932,0,0,0-.875.716h0l-.954,4.135a.171.171,0,0,1-.159.159H8.714a.171.171,0,0,1-.159-.159l-1.67-7.157h11.77a.875.875,0,1,0,0-1.75H6.408L5.772,5.452A1.727,1.727,0,0,0,4.022,4.1H1.875a.875.875,0,1,0,0,1.75H3.942L6.805,17.858v.08a2.03,2.03,0,0,0,1.909,1.511H19.53a1.9,1.9,0,0,0,1.909-1.511l.954-4.135h0C22.472,13.643,22.472,13.643,22.472,13.564Z" transform="translate(0 -0.184)" fill="#7b7b7b"/>
    </g>
  </g>
</svg>
