<?xml version="1.0" encoding="utf-8"?>
<!-- Generator: Adobe Illustrator 24.1.0, SVG Export Plug-In . SVG Version: 6.00 Build 0)  -->
<svg version="1.1" id="圖層_1" xmlns="http://www.w3.org/2000/svg" xmlns:xlink="http://www.w3.org/1999/xlink" x="0px" y="0px"
	 viewBox="0 0 18.84 24" style="enable-background:new 0 0 18.84 24;" xml:space="preserve">
<style type="text/css">
	.st0{fill:#868686;}
</style>
<g>
	<path class="st0" d="M3.12,5.88v13.4c0,1.88-0.61,3.03-1.27,3.72h0.31c0.17,0,4.1-0.05,4.1-3.03V6.33
		C6.22,5.74,6.28,5.12,6.43,4.52C6.65,3.47,7.26,1.98,8.87,1H7.6C3.32,1,3.12,5.68,3.12,5.88z"/>
	<polygon class="st0" points="13.05,0.5 13.05,0.5 13.05,0.5 	"/>
</g>
<path class="st0" d="M17.51,4.29C16.41,1.59,13,1,12.96,0.99C9.23,1,7.97,2.83,7.56,4.06h3.15c0.04,0,0.08,0,0.12,0
	c1,0,2.45,0.03,3.36,0.94C14.72,5.55,15,6.33,15,7.32c0,0.44-0.09,0.87-0.25,1.26C15.95,7.74,17.01,6.36,17.51,4.29z"/>
<path class="st0" d="M17.83,6.58c-1.15,2.19-3.34,3.76-5.88,4.07l-4.7,0v3.15h3.33C16.61,13.8,17.81,11.27,17.83,6.58z"/>
</svg>
