<?xml version="1.0" encoding="utf-8"?>
<!-- Generator: Adobe Illustrator 24.1.0, SVG Export Plug-In . SVG Version: 6.00 Build 0)  -->
<svg version="1.1" id="圖層_1" xmlns="http://www.w3.org/2000/svg" xmlns:xlink="http://www.w3.org/1999/xlink" x="0px" y="0px"
	 viewBox="0 0 76.5 76.5" style="enable-background:new 0 0 76.5 76.5;" xml:space="preserve">
<style type="text/css">
	.st0{display:none;}
	.st1{display:inline;}
</style>
<path d="M74.9,3.35H8.97v47.79H1.01c0,0.85,0,1.68-0.01,2.5c-0.01,2.49-0.02,4.86,0.02,7.23c0.11,7.87,4.52,12.22,12.41,12.25
	c14.99,0.05,30.99,0.05,48.91,0C70.6,73.08,74.97,68.75,75,60.6c0.05-16.48,0.04-33.62-0.01-52.41c0-0.53,0.03-1.08,0.07-1.62
	C75.13,5.43,75.2,4.35,74.9,3.35z M52.31,67.1c-3.49,0-6.97,0.01-10.45,0.02c-4,0.01-8.06,0.02-12.14,0.02
	c-5.79,0-11.62-0.02-17.38-0.11C10.57,67,9.28,66.54,8.38,65.6c-1.5-1.57-1.42-3.99-1.34-6.33c0.01-0.3,0.02-0.61,0.03-0.91
	l0.02-0.98h45.73l0.12,2.11c0.12,2.12,0.23,4.21,0.37,6.54l0.06,1.06L52.31,67.1z M64.24,67c-0.07,0-0.13,0-0.2,0
	c-1.46,0-2.64-0.43-3.51-1.29c-1.04-1.04-1.56-2.62-1.52-4.7c0.03-2.37,0.03-4.74,0.02-7.23c0-0.83-0.01-1.68-0.01-2.54H15.28V9.39
	h53.74v13.55c0,12.84,0,25.54,0.01,38.23C69.03,66.14,66.03,66.96,64.24,67z"/>
<g class="st0">
	<rect x="41.12" y="19.41" class="st1" width="17.61" height="5.43"/>
	<rect x="41.33" y="35.43" class="st1" width="17.37" height="5.55"/>
	<rect x="25.22" y="19.4" class="st1" width="5.43" height="5.43"/>
	<rect x="25.22" y="35.4" class="st1" width="5.43" height="5.43"/>
</g>
<path d="M46.7,30.15l9.37-8.99c0.75-0.75,0.75-1.5,0.75-2.25s-0.37-1.5-0.75-2.25c-0.75-0.37-1.5-0.75-2.25-0.75l0,0
	c-0.75,0-1.5,0.37-2.25,0.75l-9.37,9.37l-9.37-9.37c-1.12-1.12-3-1.12-4.5,0c-1.12,1.12-1.12,3,0,4.12l9.37,9.37l-9.37,9.37
	c-0.75,0.75-0.75,1.5-0.75,2.25s0.37,1.5,0.75,2.25c1.12,1.12,3.37,1.12,4.12-0.37l9.37-8.99l9.37,9.37
	c0.37,0.37,1.12,0.75,2.25,0.75c0.37,0,1.5,0,2.25-1.12c0.75-0.75,0.75-1.5,0.75-2.25s-0.37-1.5-0.75-2.25L46.7,30.15z M54.94,42.89
	L54.94,42.89L54.94,42.89L54.94,42.89L54.94,42.89z"/>
</svg>
