<?xml version="1.0" encoding="utf-8"?>
<!-- Generator: Adobe Illustrator 24.1.0, SVG Export Plug-In . SVG Version: 6.00 Build 0)  -->
<svg version="1.1" id="圖層_1" xmlns="http://www.w3.org/2000/svg" xmlns:xlink="http://www.w3.org/1999/xlink" x="0px" y="0px"
	 viewBox="0 0 76.5 76.5" style="enable-background:new 0 0 76.5 76.5;" xml:space="preserve">
<style type="text/css">
	.st0{stroke:#FFFFFF;stroke-width:2;stroke-miterlimit:10;}
</style>
<g>
	<path class="st0" d="M75.58,2.35c-22.48,0-44.86,0-67.61,0c0,15.96,0,31.68,0,47.79c-2.77,0-5.18,0-7.96,0
		c0,3.82-0.04,7.28,0.01,10.74c0.12,8.43,4.89,13.2,13.41,13.23c16.31,0.06,32.62,0.05,48.92,0C71.2,74.08,75.97,69.37,76,60.6
		c0.05-17.47,0.04-34.94-0.01-52.42C75.98,6.25,76.48,4.24,75.58,2.35z M12.35,66.04c-4.95-0.07-4.36-4.03-4.28-7.65
		c14.59,0,29.14,0,43.81,0c0.14,2.54,0.27,4.95,0.43,7.71C38.93,66.11,25.64,66.23,12.35,66.04z M64.21,66
		c-3.11,0.08-4.25-2.04-4.2-4.97c0.05-3.47,0.01-6.94,0.01-10.79c-14.68,0-29.08,0-43.74,0c0-13.46,0-26.52,0-39.85
		c17.08,0,34.14,0,51.74,0c0,17.16-0.01,33.97,0.01,50.78C68.03,63.85,67.05,65.93,64.21,66z"/>
	<path class="st0" d="M40.12,25.84c0-2.56,0-4.86,0-7.43c6.49,0,12.9,0,19.61,0c0,2.33,0,4.73,0,7.43
		C53.43,25.84,47.01,25.84,40.12,25.84z"/>
	<path class="st0" d="M59.7,41.98c-6.48,0-12.77,0-19.37,0c0-2.42,0-4.83,0-7.55c6.22,0,12.64,0,19.37,0
		C59.7,36.69,59.7,39.09,59.7,41.98z"/>
	<rect x="24.22" y="18.4" class="st0" width="7.43" height="7.43"/>
	<rect x="24.22" y="34.4" class="st0" width="7.43" height="7.43"/>
</g>
</svg>
