<?xml version="1.0" encoding="utf-8"?>
<!-- Generator: Adobe Illustrator 24.1.0, SVG Export Plug-In . SVG Version: 6.00 Build 0)  -->
<svg version="1.1" id="圖層_1" xmlns="http://www.w3.org/2000/svg" xmlns:xlink="http://www.w3.org/1999/xlink" x="0px" y="0px"
	 viewBox="0 0 16 16" style="enable-background:new 0 0 16 16;" xml:space="preserve">
<style type="text/css">
	.st0{fill:#FFFFFF;}
</style>
<path class="st0" d="M14.1,14.9c-0.2,0-0.4-0.1-0.5-0.2L1.4,2.4c-0.3-0.3-0.3-0.8,0-1.1s0.8-0.3,1.1,0l12.2,12.2
	c0.3,0.3,0.3,0.8,0,1.1C14.5,14.8,14.3,14.9,14.1,14.9z"/>
<path class="st0" d="M1.9,14.9c-0.2,0-0.4-0.1-0.5-0.2c-0.3-0.3-0.3-0.8,0-1.1L13.6,1.4c0.3-0.3,0.8-0.3,1.1,0s0.3,0.8,0,1.1
	L2.4,14.6C2.3,14.8,2.1,14.9,1.9,14.9z"/>
</svg>
