<?xml version="1.0" encoding="utf-8"?>
<!-- Generator: Adobe Illustrator 24.1.0, SVG Export Plug-In . SVG Version: 6.00 Build 0)  -->
<svg version="1.1" id="圖層_1" xmlns="http://www.w3.org/2000/svg" xmlns:xlink="http://www.w3.org/1999/xlink" x="0px" y="0px"
	 viewBox="0 0 22.7 22.7" style="enable-background:new 0 0 22.7 22.7;" xml:space="preserve">
<style type="text/css">
	.st0{fill:#7B7B7B;stroke:#FFFFFF;stroke-width:0.2;}
	.st1{fill:#7B7B7B;}
</style>
<path id="icons8-google-web-search" class="st0" d="M8.7,0.1C4,0.1,0.1,3.9,0.1,8.7c0,4.8,3.8,8.6,8.6,8.6c2,0,3.9-0.7,5.4-1.9
	l7.1,7.1l1.3-1.3l-7.1-7.1c3-3.7,2.4-9.1-1.3-12.1C12.6,0.8,10.7,0.1,8.7,0.1z M8.7,1.9c3.8,0,6.8,3,6.8,6.8s-3,6.8-6.8,6.8
	s-6.8-3-6.8-6.8C1.9,5,4.9,1.9,8.7,1.9C8.7,1.9,8.7,1.9,8.7,1.9z"/>
<path class="st1" d="M9.9,8.7l2.5-2.4c0.2-0.2,0.2-0.4,0.2-0.6c0-0.2-0.1-0.4-0.2-0.6C12.2,5,12,4.9,11.8,4.9h0
	c-0.2,0-0.4,0.1-0.6,0.2L8.7,7.6L6.2,5.1c-0.3-0.3-0.8-0.3-1.2,0c-0.3,0.3-0.3,0.8,0,1.1l2.5,2.5l-2.5,2.5c-0.2,0.2-0.2,0.4-0.2,0.6
	c0,0.2,0.1,0.4,0.2,0.6c0.3,0.3,0.9,0.3,1.1-0.1l2.5-2.4l2.5,2.5c0.1,0.1,0.3,0.2,0.6,0.2c0.1,0,0.4,0,0.6-0.3
	c0.2-0.2,0.2-0.4,0.2-0.6c0-0.2-0.1-0.4-0.2-0.6L9.9,8.7z M12.1,12.1L12.1,12.1L12.1,12.1L12.1,12.1L12.1,12.1z"/>
</svg>
