<?xml version="1.0" encoding="utf-8"?>
<!-- Generator: Adobe Illustrator 24.1.0, SVG Export Plug-In . SVG Version: 6.00 Build 0)  -->
<svg version="1.1" id="圖層_1" xmlns="http://www.w3.org/2000/svg" xmlns:xlink="http://www.w3.org/1999/xlink" x="0px" y="0px"
	 viewBox="0 0 20.7 19.2" style="enable-background:new 0 0 20.7 19.2;" xml:space="preserve">
<style type="text/css">
	.st0{fill:#7B7B7B;}
</style>
<path id="iconsvg-08" class="st0" d="M10.3,19.2c-0.6,0-1.3-0.3-1.8-0.7c-3-2.4-6.1-5-7.8-8.8c-1.3-2.9-0.9-5.8,0.8-7.7
	c2.2-2.4,6-2.6,8.4-0.3c0,0,0.1,0.1,0.1,0.1l0.3,0.2c0.1-0.1,0.3-0.2,0.3-0.3c2.5-2,5-2.1,7.5-0.5c2.3,1.6,3.2,4.6,2.3,7.2
	c-1,3.6-3.6,6.3-5.9,8.3c-0.4,0.4-0.9,0.8-1.4,1.2c-0.3,0.2-0.5,0.4-0.8,0.6C11.8,18.9,11.1,19.1,10.3,19.2z"/>
</svg>
