<?xml version="1.0" encoding="utf-8"?>
<!-- Generator: Adobe Illustrator 24.1.0, SVG Export Plug-In . SVG Version: 6.00 Build 0)  -->
<svg version="1.1" id="圖層_1" xmlns="http://www.w3.org/2000/svg" xmlns:xlink="http://www.w3.org/1999/xlink" x="0px" y="0px"
	 viewBox="0 0 17.1 16.1" style="enable-background:new 0 0 17.1 16.1;" xml:space="preserve">
<style type="text/css">
	.st0{fill:#707070;}
</style>
<g>
	<path class="st0" d="M16.8,3.9c0.1-0.2,0.1-0.3,0-0.5c0-0.1-0.1-0.2-0.1-0.2l-2.8-2.8c-0.3-0.3-0.7-0.3-0.9,0
		c-0.3,0.3-0.3,0.7,0,0.9L14.6,3H2.5l1.6-1.6c0.3-0.3,0.3-0.7,0-0.9c-0.3-0.3-0.7-0.3-0.9,0L0.5,3.2C0.4,3.3,0.4,3.3,0.3,3.4
		c0,0.1,0,0.2,0,0.2c0,0,0,0,0,0c0,0,0,0,0,0c0,0.1,0,0.2,0.1,0.2c0,0.1,0.1,0.1,0.1,0.2c0,0,0,0,0,0l2.8,2.8C3.3,7,3.5,7.1,3.7,7.1
		S4,7,4.1,6.9c0.3-0.3,0.3-0.7,0-0.9L2.5,4.3h12.1L13,6c-0.3,0.3-0.3,0.7,0,0.9c0.1,0.1,0.3,0.2,0.5,0.2s0.3-0.1,0.5-0.2l2.8-2.8
		C16.7,4.1,16.7,4,16.8,3.9z"/>
	<path class="st0" d="M16.8,12.2c0-0.1-0.1-0.2-0.1-0.2l-2.8-2.8C13.6,9,13.2,9,13,9.2s-0.3,0.7,0,0.9l1.6,1.6H2.5l1.6-1.6
		c0.3-0.3,0.3-0.7,0-0.9S3.5,9,3.2,9.2L0.5,12c-0.1,0.1-0.1,0.1-0.1,0.2c0,0.1,0,0.1,0,0.2c0,0,0,0,0,0c0,0,0,0,0,0
		c0,0.1,0,0.2,0.1,0.2c0,0.1,0.1,0.1,0.1,0.2c0,0,0,0,0,0.1l2.8,2.8c0.1,0.1,0.3,0.2,0.5,0.2s0.3-0.1,0.5-0.2c0.3-0.3,0.3-0.7,0-0.9
		l-1.6-1.6h12.1L13,14.7c-0.3,0.3-0.3,0.7,0,0.9c0.1,0.1,0.3,0.2,0.5,0.2s0.3-0.1,0.5-0.2l2.8-2.8c0.1-0.1,0.1-0.1,0.1-0.2
		C16.8,12.5,16.8,12.3,16.8,12.2z"/>
</g>
</svg>
