<svg xmlns="http://www.w3.org/2000/svg" width="20.743" height="19.152" viewBox="0 0 20.743 19.152">
  <path id="iconsvg-08" d="M13.143,23.062a3.118,3.118,0,0,1-1.78-.678c-2.967-2.374-6.1-5-7.8-8.817-1.272-2.883-.933-5.85.848-7.715A5.939,5.939,0,0,1,12.889,5.6l.254.17c.085-.085.254-.17.339-.254,2.543-1.95,5-2.12,7.461-.509a6.357,6.357,0,0,1,2.289,7.206c-1.017,3.646-3.646,6.274-5.935,8.309-.424.424-.933.763-1.441,1.187-.254.17-.509.424-.763.593A2.987,2.987,0,0,1,13.143,23.062ZM8.819,5.6A4.488,4.488,0,0,0,5.682,7.039c-1.357,1.357-1.526,3.646-.593,5.85,1.611,3.476,4.493,6.02,7.291,8.224a1.17,1.17,0,0,0,1.611-.085c.254-.17.509-.424.763-.593a8.56,8.56,0,0,0,1.357-1.1c2.12-1.95,4.578-4.324,5.426-7.546a4.716,4.716,0,0,0-1.611-5.341c-1.78-1.187-3.476-1.1-5.426.424-.17.085-.339.254-.509.339l-1.017.763-1.187-1.1A4.258,4.258,0,0,0,8.819,5.6Z" transform="translate(-2.799 -3.911)" fill="#7b7b7b"/>
</svg>
