<?xml version="1.0" encoding="utf-8"?>
<!-- Generator: Adobe Illustrator 24.1.0, SVG Export Plug-In . SVG Version: 6.00 Build 0)  -->
<svg version="1.1" id="圖層_1" xmlns="http://www.w3.org/2000/svg" xmlns:xlink="http://www.w3.org/1999/xlink" x="0px" y="0px"
	 viewBox="0 0 16.4 17.2" style="enable-background:new 0 0 16.4 17.2;" xml:space="preserve">
<style type="text/css">
	.st0{fill:#707070;}
</style>
<path class="st0" d="M15.5,8.2H9.8C9.4,8.2,9,8.5,9,9v7.4c0,0.5,0.4,0.8,0.8,0.8h5.7c0.5,0,0.8-0.4,0.8-0.8V9
	C16.4,8.5,16,8.2,15.5,8.2z M15.1,15.9h-4.8V9.5h4.8V15.9z"/>
<path class="st0" d="M6.5,11.5H0.8c-0.5,0-0.8,0.4-0.8,0.8v4.1c0,0.5,0.4,0.8,0.8,0.8h5.7c0.5,0,0.8-0.4,0.8-0.8v-4.1
	C7.4,11.8,7,11.5,6.5,11.5z M6.1,15.9H1.3v-3.1h4.8V15.9z"/>
<path class="st0" d="M6.5,0H0.8C0.4,0,0,0.4,0,0.8v7.4C0,8.6,0.4,9,0.8,9h5.7C7,9,7.4,8.6,7.4,8.2V0.8C7.4,0.4,7,0,6.5,0z M6.1,7.7
	H1.3V1.3h4.8V7.7z"/>
<path class="st0" d="M15.5,0H9.8C9.4,0,9,0.4,9,0.8v4.1c0,0.5,0.4,0.8,0.8,0.8h5.7c0.5,0,0.8-0.4,0.8-0.8V0.8C16.4,0.4,16,0,15.5,0z
	 M15.1,4.4h-4.8V1.3h4.8V4.4z"/>
</svg>
