<svg xmlns="http://www.w3.org/2000/svg" width="23.772" height="21.06" viewBox="0 0 23.772 21.06">
  <g id="Group_445" data-name="Group 445" transform="translate(-244.7 -37.14)">
    <path id="Path_43" data-name="Path 43" d="M24,7.868a1.646,1.646,0,0,0-1.285-.617h-16l-.751-3.2a1.847,1.847,0,0,0-1.8-1.427H1.951a.951.951,0,1,0,0,1.9H4.112L7.075,17.114l.017.05a2.089,2.089,0,0,0,2.019,1.56H20.45a2.08,2.08,0,0,0,2.028-1.6l1.844-7.86A1.612,1.612,0,0,0,24,7.868ZM22.386,9.153,20.617,16.68h0a.171.171,0,0,1-.167.134H9.111a.179.179,0,0,1-.175-.142L7.166,9.153h15.22Z" transform="translate(243.9 34.72)" fill="#7b7b7b" stroke="#f2f2f2" stroke-width="0.4"/>
    <path id="Path_44" data-name="Path 44" d="M12.4,23.12A1.777,1.777,0,1,0,14.175,24.9,1.773,1.773,0,0,0,12.4,23.12Z" transform="translate(242.307 31.325)" fill="#7b7b7b" stroke="#f8f8f8" stroke-width="0.4"/>
    <path id="Path_45" data-name="Path 45" d="M22.307,23.12A1.777,1.777,0,1,0,24.085,24.9,1.773,1.773,0,0,0,22.307,23.12Z" transform="translate(241.554 31.325)" fill="#7b7b7b" stroke="#f8f8f8" stroke-width="0.4"/>
  </g>
</svg>
