<?xml version="1.0" encoding="utf-8"?>
<!-- Generator: Adobe Illustrator 24.1.0, SVG Export Plug-In . SVG Version: 6.00 Build 0)  -->
<svg version="1.1" id="圖層_1" xmlns="http://www.w3.org/2000/svg" xmlns:xlink="http://www.w3.org/1999/xlink" x="0px" y="0px"
	 viewBox="0 0 23.8 21.1" style="enable-background:new 0 0 23.8 21.1;" xml:space="preserve">
<style type="text/css">
	.st0{fill:#7B7B7B;}
</style>
<path class="st0" d="M1.1,1.9C1.1,1.9,1.1,1.9,1.1,1.9l2.2,0h0.2l3,12.8c0.2,0.8,1,1.4,1.8,1.4h11.3c0,0,0,0,0,0
	c0.9,0,1.6-0.6,1.8-1.4l1.8-7.9c0.1-0.4,0-0.9-0.3-1.2l0,0C22.8,5.2,22.4,5,21.9,5H5.8L5,1.7C4.8,0.9,4.1,0.4,3.4,0.4c0,0,0,0,0,0
	H1.2c-0.4,0-0.8,0.3-0.8,0.7C0.3,1.5,0.7,1.9,1.1,1.9z M21.8,6.5L20,14.3c0,0.2-0.2,0.3-0.4,0.3H8.3c-0.2,0-0.3-0.1-0.4-0.3L6.1,6.5
	H21.8z"/>
<path class="st0" d="M19.2,17.5c-0.9,0-1.6,0.7-1.6,1.6c0,0.9,0.7,1.6,1.6,1.6c0.9,0,1.6-0.7,1.6-1.6c0-0.4-0.2-0.8-0.5-1.1
	C20,17.7,19.6,17.5,19.2,17.5v-0.2l0,0V17.5z"/>
<path class="st0" d="M10,17.5c-0.4,0-0.8,0.2-1.1,0.5c-0.3,0.3-0.5,0.7-0.5,1.1c0,0.9,0.7,1.6,1.6,1.6c0,0,0,0,0,0
	c0.9,0,1.6-0.7,1.6-1.6C11.6,18.2,10.9,17.5,10,17.5l0-0.2l0,0L10,17.5C10,17.5,10,17.5,10,17.5z"/>
</svg>
