<svg xmlns="http://www.w3.org/2000/svg" width="21.266" height="21.266" viewBox="0 0 21.266 21.266">
  <g id="icon_filter" transform="translate(0 -0.02)">
    <rect id="Rectangle_98" data-name="Rectangle 98" width="21.266" height="21.266" transform="translate(0 0.02)" fill="none"/>
    <path id="Path_18" data-name="Path 18" d="M9.082,20.322a.747.747,0,0,1-.751-.751V12.638L1.164,3.472A.748.748,0,0,1,1.752,2.26H20.1a.748.748,0,0,1,.588,1.212l-7.167,9.166v4.7a.751.751,0,0,1-1.5,0V12.376a.717.717,0,0,1,.163-.461l6.38-8.159H3.29l6.38,8.159a.746.746,0,0,1,.163.461v7.2A.747.747,0,0,1,9.082,20.322Z" transform="translate(-0.292 -0.652)" fill="#707070" stroke="#fff" stroke-width="0.2"/>
  </g>
</svg>
