<svg xmlns="http://www.w3.org/2000/svg" width="22.312" height="19.152" viewBox="0 0 22.312 19.152">
  <g id="Group_447" data-name="Group 447" transform="translate(-515 -40.228)">
    <g id="icon_like-07" transform="translate(512.173 36.452)">
      <path id="Path_53" data-name="Path 53" d="M16.879,18.462l-.759.759c-.421.337-.843.759-1.349,1.1-.253.169-.506.421-.759.59a1.163,1.163,0,0,1-1.6.084C9.631,18.8,6.681,16.354,5.164,12.815,4.153,10.623,4.406,8.348,5.754,7a4.3,4.3,0,0,1,6.153-.169L12.075,7c.169.084.253.253.506.421l.506.421.843-.674c.169-.169.337-.253.506-.421,1.939-1.517,3.624-1.6,5.394-.421a4.429,4.429,0,0,1,1.6,2.107.843.843,0,0,0,1.1.506.877.877,0,0,0,.506-1.1,5.994,5.994,0,0,0-2.276-2.95c-2.444-1.6-4.8-1.517-7.417.506a1.163,1.163,0,0,1-.253.337l-.169-.169a5.9,5.9,0,0,0-8.428.253c-1.854,1.854-2.191,4.8-.843,7.67,1.77,3.877,4.8,6.49,7.754,8.765a3.1,3.1,0,0,0,1.77.674,2.969,2.969,0,0,0,1.939-.759c.253-.169.506-.421.759-.59A17.655,17.655,0,0,0,17.3,20.4a7.6,7.6,0,0,1,.843-.759.815.815,0,0,0,0-1.18A.915.915,0,0,0,16.879,18.462Z" fill="#7b7b7b"/>
      <path id="Path_54" data-name="Path 54" d="M27.064,14.534H24.957V12.427a.927.927,0,1,0-1.854,0v2.107H20.827a.927.927,0,0,0,0,1.854h2.107V18.5a.927.927,0,1,0,1.854,0V16.388H26.9a.935.935,0,0,0,.927-.927C27.823,14.956,27.57,14.534,27.064,14.534Z" transform="translate(-2.683 -1.214)" fill="#7b7b7b"/>
    </g>
  </g>
</svg>
