<svg xmlns="http://www.w3.org/2000/svg" width="68.602" height="12.473" viewBox="0 0 68.602 12.473">
  <g id="Group_187" data-name="Group 187" transform="translate(0 0)">
    <g id="icon_star" transform="translate(0 0)">
      <rect id="Rectangle_86" data-name="Rectangle 86" width="12.473" height="12.473" transform="translate(0 0)" fill="none"/>
      <path id="Path_9" data-name="Path 9" d="M6.2,9.122,2.986,10.65,3.6,7.409,1,5.113l3.59-.475L6.2,1.69,7.8,4.638l3.59.475-2.6,2.3.613,3.241Z" transform="translate(0.039 0.046)" fill="#7b7b7b"/>
    </g>
    <g id="icon_star-2" data-name="icon_star" transform="translate(14.552 0)">
      <rect id="Rectangle_86-2" data-name="Rectangle 86" width="12.473" height="12.473" transform="translate(0 0)" fill="none"/>
      <path id="Path_9-2" data-name="Path 9" d="M6.2,9.122,2.986,10.65,3.6,7.409,1,5.113l3.59-.475L6.2,1.69,7.8,4.638l3.59.475-2.6,2.3.613,3.241Z" transform="translate(0.039 0.046)" fill="#7b7b7b"/>
    </g>
    <g id="icon_star-3" data-name="icon_star" transform="translate(28.064 0)">
      <rect id="Rectangle_86-3" data-name="Rectangle 86" width="12.473" height="12.473" transform="translate(0 0)" fill="none"/>
      <path id="Path_9-3" data-name="Path 9" d="M6.2,9.122,2.986,10.65,3.6,7.409,1,5.113l3.59-.475L6.2,1.69,7.8,4.638l3.59.475-2.6,2.3.613,3.241Z" transform="translate(0.039 0.046)" fill="#7b7b7b"/>
    </g>
    <g id="icon_star-4" data-name="icon_star" transform="translate(42.616 0)">
      <rect id="Rectangle_86-4" data-name="Rectangle 86" width="12.473" height="12.473" transform="translate(0 0)" fill="none"/>
      <path id="Path_9-4" data-name="Path 9" d="M6.2,9.122,2.986,10.65,3.6,7.409,1,5.113l3.59-.475L6.2,1.69,7.8,4.638l3.59.475-2.6,2.3.613,3.241Z" transform="translate(0.039 0.046)" fill="#7b7b7b"/>
    </g>
    <g id="icon_star-5" data-name="icon_star" transform="translate(56.128 0)">
      <rect id="Rectangle_86-5" data-name="Rectangle 86" width="12.473" height="12.473" transform="translate(0 0)" fill="none"/>
      <path id="Path_9-5" data-name="Path 9" d="M6.2,9.122,2.986,10.65,3.6,7.409,1,5.113l3.59-.475L6.2,1.69,7.8,4.638l3.59.475-2.6,2.3.613,3.241Z" transform="translate(0.039 0.046)" fill="#7b7b7b"/>
    </g>
  </g>
</svg>
