<svg xmlns="http://www.w3.org/2000/svg" width="16.361" height="17.179" viewBox="0 0 16.361 17.179">
  <g id="Path_19" data-name="Path 19" transform="translate(1335 757)" fill="none">
    <path d="M-1325.183-739.821a.817.817,0,0,1-.818-.818V-748a.817.817,0,0,1,.818-.818h5.726a.818.818,0,0,1,.818.818v7.363a.818.818,0,0,1-.818.818Zm-9,0a.818.818,0,0,1-.818-.818v-4.09a.818.818,0,0,1,.818-.819h5.727a.819.819,0,0,1,.818.819v4.09a.818.818,0,0,1-.818.818Zm0-8.181a.818.818,0,0,1-.818-.818v-7.363a.818.818,0,0,1,.818-.818h5.727a.818.818,0,0,1,.818.818v7.363a.818.818,0,0,1-.818.818Zm9-3.272a.818.818,0,0,1-.818-.818v-4.091a.818.818,0,0,1,.818-.818h5.726a.818.818,0,0,1,.818.818v4.091a.819.819,0,0,1-.818.818Z" stroke="none"/>
    <path d="M -1319.938720703125 -741.1207885742188 L -1319.938720703125 -747.5192260742188 L -1324.701293945313 -747.5192260742188 L -1324.701293945313 -741.1207885742188 L -1319.938720703125 -741.1207885742188 M -1328.937255859375 -741.1207885742188 L -1328.937255859375 -744.247314453125 L -1333.699829101563 -744.247314453125 L -1333.699829101563 -741.1207885742188 L -1328.937255859375 -741.1207885742188 M -1328.937255859375 -749.3013305664063 L -1328.937255859375 -755.6998901367188 L -1333.699829101563 -755.6998901367188 L -1333.699829101563 -749.3013305664063 L -1328.937255859375 -749.3013305664063 M -1319.938720703125 -752.5731811523438 L -1319.938720703125 -755.6998901367188 L -1324.701293945313 -755.6998901367188 L -1324.701293945313 -752.5731811523438 L -1319.938720703125 -752.5731811523438 M -1319.45703125 -739.82080078125 L -1325.183471679688 -739.82080078125 C -1325.635498046875 -739.82080078125 -1326.001342773438 -740.1866455078125 -1326.001342773438 -740.638671875 L -1326.001342773438 -748.0013427734375 C -1326.001342773438 -748.453369140625 -1325.635498046875 -748.8192138671875 -1325.183471679688 -748.8192138671875 L -1319.45703125 -748.8192138671875 C -1319.005493164063 -748.8192138671875 -1318.638671875 -748.453369140625 -1318.638671875 -748.0013427734375 L -1318.638671875 -740.638671875 C -1318.638671875 -740.1866455078125 -1319.005493164063 -739.82080078125 -1319.45703125 -739.82080078125 Z M -1328.455078125 -739.82080078125 L -1334.181762695313 -739.82080078125 C -1334.633911132813 -739.82080078125 -1334.999877929688 -740.1866455078125 -1334.999877929688 -740.638671875 L -1334.999877929688 -744.7286987304688 C -1334.999877929688 -745.1807861328125 -1334.633911132813 -745.5473022460938 -1334.181762695313 -745.5473022460938 L -1328.455078125 -745.5473022460938 C -1328.004028320313 -745.5473022460938 -1327.63720703125 -745.1807861328125 -1327.63720703125 -744.7286987304688 L -1327.63720703125 -740.638671875 C -1327.63720703125 -740.1866455078125 -1328.004028320313 -739.82080078125 -1328.455078125 -739.82080078125 Z M -1328.455078125 -748.0013427734375 L -1334.181762695313 -748.0013427734375 C -1334.633911132813 -748.0013427734375 -1334.999877929688 -748.3672485351563 -1334.999877929688 -748.8192138671875 L -1334.999877929688 -756.1819458007813 C -1334.999877929688 -756.6338500976563 -1334.633911132813 -756.9998779296875 -1334.181762695313 -756.9998779296875 L -1328.455078125 -756.9998779296875 C -1328.004028320313 -756.9998779296875 -1327.63720703125 -756.6338500976563 -1327.63720703125 -756.1819458007813 L -1327.63720703125 -748.8192138671875 C -1327.63720703125 -748.3672485351563 -1328.004028320313 -748.0013427734375 -1328.455078125 -748.0013427734375 Z M -1319.45703125 -751.273193359375 L -1325.183471679688 -751.273193359375 C -1325.635498046875 -751.273193359375 -1326.001342773438 -751.639892578125 -1326.001342773438 -752.0911254882813 L -1326.001342773438 -756.1819458007813 C -1326.001342773438 -756.6338500976563 -1325.635498046875 -756.9998779296875 -1325.183471679688 -756.9998779296875 L -1319.45703125 -756.9998779296875 C -1319.005493164063 -756.9998779296875 -1318.638671875 -756.6338500976563 -1318.638671875 -756.1819458007813 L -1318.638671875 -752.0911254882813 C -1318.638671875 -751.639892578125 -1319.005493164063 -751.273193359375 -1319.45703125 -751.273193359375 Z" stroke="none" fill="#707070"/>
  </g>
</svg>
