<?xml version="1.0" encoding="utf-8"?>
<!-- Generator: Adobe Illustrator 24.1.0, SVG Export Plug-In . SVG Version: 6.00 Build 0)  -->
<svg version="1.1" id="icon_list" xmlns="http://www.w3.org/2000/svg" xmlns:xlink="http://www.w3.org/1999/xlink" x="0px" y="0px"
	 viewBox="0 0 21.4 21.1" style="enable-background:new 0 0 21.4 21.1;" xml:space="preserve">
<style type="text/css">
	.st0{fill:#7B7B7B;}
</style>
<g>
	<path class="st0" d="M18,0.6C18,0.6,18,0.6,18,0.6H2.4c0,0,0,0,0,0c-1,0-1.8,0.8-1.8,1.8V10c0,1,0.8,1.8,1.8,1.8c0,0,0,0,0,0l1.1,0
		c0.1,0,0.2,0,0.2,0v5.8c0,1.6,1.3,2.8,2.8,2.8H18c1.6,0,2.8-1.3,2.8-2.8V3.4C20.8,1.8,19.5,0.6,18,0.6z M3.8,2.4V10
		c0,0.1-0.1,0.2-0.2,0.2l-1.2,0c0,0,0,0,0,0c-0.1,0-0.2-0.1-0.2-0.2V2.4c0-0.1,0.1-0.2,0.2-0.2h1.2c0,0,0,0,0,0c0,0,0.1,0,0.1,0
		C3.8,2.3,3.8,2.3,3.8,2.4z M19.2,3.4v14.3c0,0.7-0.6,1.2-1.2,1.2H6.6c-0.7,0-1.2-0.6-1.2-1.2l0-15.3c0-0.1,0-0.2,0-0.2H18
		C18.7,2.2,19.2,2.7,19.2,3.4z"/>
	<path class="st0" d="M16.7,5.9H8C7.8,5.9,7.6,6,7.4,6.1C7.3,6.2,7.2,6.4,7.2,6.7c0,0.2,0.1,0.4,0.2,0.6c0.1,0.2,0.3,0.2,0.6,0.3
		c0,0,0,0,0.1,0h8.7c0,0,0,0,0,0c0.2,0,0.4-0.1,0.5-0.2c0.2-0.1,0.2-0.3,0.3-0.5c0,0,0-0.1,0-0.1C17.5,6.2,17.1,5.9,16.7,5.9z"/>
	<path class="st0" d="M16.7,9.8H8c-0.2,0-0.4,0.1-0.6,0.2c-0.2,0.1-0.2,0.3-0.3,0.6c0,0.2,0.1,0.4,0.2,0.6c0.1,0.2,0.3,0.2,0.6,0.3
		c0,0,0,0,0.1,0h8.7c0,0,0,0,0,0c0.2,0,0.4-0.1,0.5-0.2c0.2-0.1,0.2-0.3,0.3-0.5c0,0,0-0.1,0-0.1C17.5,10.1,17.1,9.8,16.7,9.8z"/>
	<path class="st0" d="M13.3,13.6H8c-0.2,0-0.4,0.1-0.6,0.3c-0.1,0.2-0.2,0.4-0.2,0.6c0,0.4,0.4,0.8,0.8,0.8h5.3c0,0,0,0,0,0
		c0.2,0,0.4-0.1,0.5-0.2c0.2-0.1,0.2-0.3,0.3-0.5c0,0,0-0.1,0-0.1C14.1,14,13.7,13.6,13.3,13.6z"/>
</g>
</svg>
