<?xml version="1.0" encoding="utf-8"?>
<!-- Generator: Adobe Illustrator 24.1.0, SVG Export Plug-In . SVG Version: 6.00 Build 0)  -->
<svg version="1.1" id="圖層_1" xmlns="http://www.w3.org/2000/svg" xmlns:xlink="http://www.w3.org/1999/xlink" x="0px" y="0px"
	 viewBox="0 0 17.3 19" style="enable-background:new 0 0 17.3 19;" xml:space="preserve">
<style type="text/css">
	.st0{fill:#7B7B7B;stroke:#F2F2F2;stroke-width:0.2;}
</style>
<g id="icons8-contacts" transform="translate(-5.9 -3.9)">
	<path id="Path_99" class="st0" d="M14.5,4.9c-3,0-5.4,2.4-5.4,5.4c0,1.8,0.9,3.5,2.4,4.5c-2.8,1.2-4.7,4-4.7,7.1h1.5
		c0-3.4,2.8-6.2,6.2-6.2c3.4,0,6.2,2.8,6.2,6.2h1.5c0-3.1-1.8-5.9-4.7-7.1c2.5-1.7,3.1-5,1.4-7.5C18,5.8,16.3,4.9,14.5,4.9z
		 M14.5,6.5c2.1,0,3.9,1.7,3.9,3.9s-1.7,3.9-3.9,3.9s-3.9-1.7-3.9-3.9C10.7,8.2,12.4,6.5,14.5,6.5C14.5,6.5,14.5,6.5,14.5,6.5z"/>
</g>
</svg>
