<svg xmlns="http://www.w3.org/2000/svg" width="24.39" height="21" viewBox="0 0 24.39 21">
  <g id="icon-09" transform="translate(-2.6 -3.3)">
    <path id="Path_86" data-name="Path 86" d="M14.748,3.3c1.7,1.507,3.2,2.919,4.991,4.52V4.43h1.789c0,1.318-.094,2.731,0,4.049a2.222,2.222,0,0,0,.659,1.507c1.507,1.507,3.2,3.013,4.8,4.52a14.088,14.088,0,0,0-1.036,1.224,11.759,11.759,0,0,0-1.13-.753V24.3H4.86V15.071a13.94,13.94,0,0,0-1.224.753c-.377-.377-.659-.753-1.036-1.13C6.649,10.928,10.6,7.161,14.748,3.3Zm8.381,19.493V13.941a1.069,1.069,0,0,0-.283-.753c-2.637-2.543-5.274-4.991-8.1-7.534-2.731,2.543-5.368,4.991-8,7.439a1.069,1.069,0,0,0-.283.753V22.7h4.991V14.506h6.686V22.7C19.833,22.793,21.34,22.793,23.129,22.793ZM13.241,16.2v6.5h3.108V16.2Z" transform="translate(0 0)" fill="#7b7b7b"/>
  </g>
</svg>
